<?xml version="1.0" standalone="no"?>
<!DOCTYPE svg PUBLIC "-//W3C//DTD SVG 20010904//EN"
 "http://www.w3.org/TR/2001/REC-SVG-20010904/DTD/svg10.dtd">
<svg version="1.0" xmlns="http://www.w3.org/2000/svg"
 width="2560.000000pt" height="2560.000000pt" viewBox="0 0 2560.000000 2560.000000"
 preserveAspectRatio="xMidYMid meet">

<g transform="translate(0.000000,2560.000000) scale(0.100000,-0.100000)"
fill="#000000" stroke="none">
<path d="M5465 21356 c-158 -39 -258 -133 -306 -287 -19 -59 -19 -221 -19
-6497 0 -5709 2 -6444 15 -6501 40 -167 164 -284 332 -311 35 -6 962 -10 2393
-10 l2335 -1 1290 -1753 c787 -1070 1294 -1751 1300 -1746 6 5 588 794 1295
1754 l1285 1746 2335 0 c1478 0 2357 4 2395 10 131 21 247 109 304 230 l26 55
3 6485 c2 5893 1 6490 -14 6540 -20 69 -62 137 -119 189 -53 49 -102 75 -182
95 -55 15 -743 16 -7339 15 -5741 -1 -7290 -3 -7329 -13z m7765 -3047 c642
-41 1143 -209 1540 -518 446 -346 709 -827 781 -1426 18 -152 15 -469 -5 -597
-35 -223 -124 -483 -227 -660 -123 -212 -295 -433 -475 -608 -179 -174 -338
-292 -540 -402 -196 -107 -372 -262 -482 -427 -86 -128 -124 -240 -156 -454
-9 -59 -22 -122 -30 -141 -22 -52 -72 -102 -128 -127 l-53 -24 -650 0 c-487 0
-660 3 -691 12 -56 18 -122 78 -150 137 -31 67 -31 134 0 318 66 381 163 572
441 857 189 194 423 385 705 576 163 110 226 163 328 270 185 196 316 448 367
706 23 117 30 335 15 455 -30 243 -113 414 -267 553 -160 144 -374 210 -647
198 -148 -6 -238 -27 -344 -81 -187 -95 -311 -241 -382 -451 -44 -134 -102
-203 -210 -254 l-55 -26 -625 -3 c-697 -3 -671 -5 -744 65 -22 21 -46 54 -54
73 -28 64 -10 280 40 495 81 350 271 670 529 893 503 436 1283 648 2169 591z
m212 -6167 c83 -40 158 -119 190 -200 22 -55 23 -68 26 -429 4 -414 -1 -454
-59 -545 -40 -61 -83 -98 -155 -134 l-59 -29 -585 0 -585 0 -57 27 c-79 37
-142 98 -181 177 l-32 66 0 415 0 415 27 55 c38 77 86 130 149 165 98 53 109
54 704 52 l550 -2 67 -33z"/>
</g>
</svg>
